<?xml version="1.0" encoding="utf-8"?>
<!-- Generator: Adobe Illustrator 24.1.3, SVG Export Plug-In . SVG Version: 6.00 Build 0)  -->
<svg version="1.1" id="Layer_1" xmlns="http://www.w3.org/2000/svg" xmlns:xlink="http://www.w3.org/1999/xlink" x="0px" y="0px"
	 viewBox="0 0 449.22 449.22" style="enable-background:new 0 0 449.22 449.22;" xml:space="preserve">
<style type="text/css">
	.st0{fill:#79B5EE;}
	.st1{fill:#184A78;}
	.st2{fill:#1F5B94;}
	.st3{fill:#022D53;}
</style>
<g>
	<g>
		<path class="st1" d="M103.82,213.13c-0.15-13.34,2.13-26.3,6.29-38.94c4.71-14.33,11.81-27.36,21.51-38.92
			c10.03-11.95,21.77-21.87,35.59-29.19c11.14-5.9,22.89-10.16,35.36-12.22c9.98-1.65,20.04-2.37,30.15-1.6
			c12.16,0.92,23.95,3.57,35.35,7.98c14.69,5.68,27.6,14.13,38.92,25.03c12.81,12.33,22.09,26.98,28.23,43.65
			c3.41,9.25,5.85,18.75,7.12,28.52c1.27,9.78,1.26,19.59,0.19,29.41c-1.11,10.24-3.35,20.22-6.91,29.89
			c-7.02,19.04-18.2,35.18-33.63,48.4c-15.13,12.96-32.42,21.55-51.78,26.1c-10.17,2.39-20.47,3.58-30.9,3.14
			c-13.43-0.58-26.41-3.39-38.99-8.12c-12.58-4.73-24.08-11.31-34.29-20.02c-13.39-11.42-23.89-25.02-31.17-41.14
			c-4.9-10.86-8.35-22.1-9.88-33.88c-0.78-5.98-1.02-12.02-1.51-18.03C103.59,213.15,103.7,213.14,103.82,213.13z M239.7,313.59
			c-0.57-1.86-0.18-3.78-1.68-5.22c-0.29-0.28-0.25-1.35,0.05-1.7c0.3-0.36,1.36-0.56,1.65-0.32c0.45,0.38,0.9,1.35,0.72,1.81
			c-0.76,1.88,0.33,3.42,0.44,5.32c2.51-0.56,4.8-1.04,7.07-1.61c0.31-0.08,0.78-0.71,0.71-0.94c-0.44-1.41-0.38-3.02-1.76-4.09
			c-0.33-0.26-0.43-1.27-0.19-1.68c0.25-0.41,1.18-0.82,1.55-0.66c0.49,0.22,1.12,1.1,1.01,1.53c-0.49,1.89,0.42,3.45,0.81,5.17
			c7.36-1.88,14.17-4.81,20.78-8.24c1.92-1,3.74-2.21,5.57-3.38c0.33-0.21,0.78-0.88,0.68-1.04c-0.77-1.26-1.13-2.8-2.61-3.61
			c-0.44-0.24-0.88-1.25-0.71-1.66c0.22-0.52,1.05-1.08,1.62-1.08c0.42,0,1.18,0.9,1.17,1.38c-0.06,1.89,1.03,3.13,2.04,4.55
			c0.87-0.54,1.66-0.99,2.41-1.51c7.54-5.19,14.01-11.56,19.92-18.5c2.25-2.64,4.15-5.57,6.18-8.39c0.22-0.31,0.4-1.05,0.29-1.12
			c-1.13-0.74-2.28-1.53-3.53-2.01c-0.65-0.25-1.5-0.18-1.52-1.04c-0.01-0.55,0.28-1.3,0.7-1.61c0.73-0.54,1.3,0.05,1.87,0.61
			c1.11,1.06,2.31,2.03,3.5,3.05c0.3-0.35,0.43-0.47,0.52-0.61c4.63-7.52,8.29-15.47,10.59-24.02c0.38-1.43-0.63-2.44-2.08-2.08
			c-0.32,0.08-0.59,0.37-0.91,0.49c-0.85,0.3-1.58,0.08-2.01-0.72c-0.43-0.81-0.38-1.64,0.36-2.25c0.7-0.58,1.38-0.39,2.13,0.14
			c0.9,0.64,1.93,1.11,3.15,1.78c0.34-1.4,0.58-2.39,0.91-3.73c-1.48-0.06-2.75-0.04-4-0.2c-0.6-0.08-1.57-0.46-1.64-0.83
			c-0.1-0.56,0.3-1.47,0.78-1.79c0.36-0.24,1.21,0.16,1.8,0.39c1.04,0.4,2.05,0.87,3.21,1.38c1.54-7.11,2.42-13.87,2.36-20.91
			c-1.39,0.15-2.62-0.29-3.72,0.77c-0.72,0.7-1.7,0.35-2.13-0.4c-0.3-0.53-0.34-1.47-0.07-2c0.4-0.77,1.37-1.13,2.13-0.51
			c0.97,0.79,2.01,0.76,3.08,0.61c0.3-0.04,0.74-0.49,0.76-0.77c0.05-0.98-0.05-1.97-0.1-3c-1.6,0-3.03-0.01-4.46,0
			c-0.63,0.01-1.4,0.04-1.27-0.81c0.05-0.33,0.86-0.73,1.34-0.76c1.12-0.08,2.26,0.1,3.39,0.07c0.31-0.01,0.88-0.38,0.88-0.59
			c0.01-1.27-0.12-2.55-0.21-4.01c-2.68,0-5.1,0-7.77,0c2.5-1.82,5.12-0.7,7.86-1.24c-0.95-5.24-1.87-10.33-2.88-15.91
			c-1.32,0.7-2.35,1.04-3.09,1.71c-0.71,0.63-1.29,0.81-2.08,0.39c-0.82-0.43-0.91-1.17-0.63-1.91c0.32-0.83,1.03-1.25,1.89-0.88
			c1.2,0.52,2.16,0.02,3.43-0.55c-1.13-3.35-2.25-6.65-3.47-10.26c-1.26,0.79-2.26,1.24-3.03,1.95c-0.69,0.64-1.36,0.92-2.06,0.41
			c-0.38-0.28-0.67-1.04-0.6-1.52c0.13-0.9,0.96-1.38,1.76-1.13c1.33,0.42,2.22-0.33,3.33-0.82c-0.52-1.25-1.01-2.43-1.65-3.99
			c-1.18,0.9-2.1,1.69-3.11,2.34c-0.48,0.31-1.27,0.6-1.69,0.41c-0.45-0.21-0.92-1.05-0.83-1.52c0.08-0.45,0.84-0.81,1.35-1.13
			c0.18-0.11,0.54,0.1,0.76,0.02c0.92-0.36,1.91-0.65,2.64-1.25c0.22-0.18-0.2-1.36-0.54-1.96c-2.39-4.24-4.61-8.59-7.32-12.63
			c-4.55-6.78-10.04-12.8-16.22-18.14c-2.46-2.13-5.14-4.01-7.7-6.03c-0.69-0.54-1.23-0.56-1.65,0.29c-0.5,0.99-0.91,2.05-1.55,2.95
			c-0.37,0.51-1.12,1.04-1.68,1.02c-0.47-0.02-1.21-0.79-1.27-1.29c-0.05-0.48,0.54-1.41,0.99-1.51c1.75-0.39,1.99-1.95,2.92-3.03
			c-0.48-0.36-0.81-0.64-1.17-0.88c-6.17-4.13-12.75-7.47-19.75-9.96c-2.33-0.83-4.74-1.45-7.08-2.24
			c-1.11-0.37-1.61-0.06-1.73,1.08c-0.12,1.1-0.51,2.16,0.07,3.3c0.18,0.35-0.17,1.29-0.55,1.52c-0.44,0.27-1.28,0.25-1.76-0.01
			c-1.04-0.54-1.06-1.85-0.1-2.58c1.25-0.95,1.32-2.36,1.19-3.64c-0.04-0.4-1.37-0.77-2.15-0.96c-5.8-1.43-11.7-2.22-17.66-2.42
			c-3.82-0.13-7.65,0.08-11.48,0.2c-0.39,0.01-1.1,0.46-1.09,0.7c0.03,1.34-0.26,2.78,0.95,3.9c0.68,0.63,0.58,1.59-0.13,2.05
			c-0.49,0.32-1.43,0.36-1.99,0.11c-0.77-0.34-1.12-1.31-0.51-1.98c0.92-1.02,0.57-2.08,0.53-3.19c-0.04-1.16-0.54-1.52-1.64-1.32
			c-4.75,0.85-9.51,1.59-14.24,2.53c-2.65,0.53-2.88,1.25-1.47,3.57c0.24,0.41,0.94,0.56,1.14,0.96c0.29,0.59,0.66,1.53,0.4,1.92
			c-0.33,0.5-1.28,0.88-1.92,0.82c-0.7-0.07-1.25-0.72-0.99-1.66c0.46-1.65-0.35-3.01-1-4.54c-1.98,0.65-3.84,1.26-5.69,1.87
			c-0.82,0.27-1.07,0.74-0.68,1.59c0.51,1.1,0.96,2.23,1.35,3.37c0.13,0.39,0.13,0.93-0.05,1.27c-0.12,0.22-0.81,0.39-1,0.26
			c-0.28-0.21-0.36-0.7-0.47-1.08c-0.43-1.46-0.84-2.92-1.28-4.46c-6.84,2.47-12.96,5.57-18.95,9.69c1,0.94,1.86,1.68,2.62,2.51
			c0.45,0.49,0.97,1.12,1,1.7c0.02,0.35-0.9,1.09-1.31,1.04c-0.5-0.07-0.98-0.74-1.33-1.25c-0.7-1.04-1.3-2.15-1.96-3.26
			c-1.34,0.91-2.38,1.62-3.42,2.33c-0.68,0.46-0.82,0.99-0.2,1.59c0.65,0.63,1.38,1.19,1.98,1.87c0.31,0.34,0.55,0.86,0.58,1.31
			c0.02,0.26-0.52,0.81-0.69,0.77c-0.45-0.11-0.91-0.41-1.22-0.76c-0.84-0.98-1.6-2.02-2.43-3.08c-0.47,0.31-0.77,0.48-1.03,0.7
			c-6.61,5.38-12.43,11.53-17.57,18.32c-0.42,0.55-1,1.67-0.83,1.84c0.71,0.7,1.67,1.16,2.57,1.64c0.24,0.13,0.71-0.11,0.88,0.05
			c0.48,0.43,1.17,0.95,1.2,1.47c0.03,0.5-0.56,1.24-1.07,1.51c-0.68,0.37-1.21-0.13-1.7-0.76c-0.64-0.81-1.48-1.46-2.29-2.12
			c-0.62-0.51-1.07-0.33-1.58,0.35c-3.08,4.09-5.44,8.59-7.63,13.19c-0.74,1.56-1.33,3.19-2,4.82c1.09,0.72,2.05,1.03,3.28,0.8
			c0.55-0.1,1.35,0.36,1.78,0.82c0.19,0.2-0.12,1.17-0.47,1.52c-0.6,0.57-1.25,0.38-1.96-0.18c-0.75-0.6-1.71-0.96-2.62-1.32
			c-0.2-0.08-0.72,0.24-0.85,0.5c-0.39,0.77-0.73,1.58-0.95,2.42c-0.07,0.28,0.21,0.9,0.45,0.97c0.87,0.26,1.79,0.46,2.7,0.48
			c0.87,0.02,1.71,0.15,1.87,1.02c0.1,0.54-0.22,1.39-0.64,1.76c-0.69,0.6-1.34,0.16-2.03-0.42c-0.85-0.71-1.95-1.12-3.13-1.77
			c-0.55,1.9-1,3.46-1.47,5.06c1.22,0.49,2.15,1.16,3.47,0.59c0.45-0.19,1.43,0.29,1.81,0.75c0.24,0.28-0.03,1.26-0.37,1.68
			c-0.53,0.64-1.25,0.5-1.97,0c-0.72-0.5-1.58-0.79-2.38-1.18c-0.85-0.42-1.18,0.01-1.35,0.79c-0.67,3.18-1.41,6.36-2.02,9.55
			c-0.3,1.55-0.39,3.13-0.57,4.67c2.76,0.19,5.3,0.37,7.84,0.55c0,0.19,0,0.37,0,0.56c-0.47,0.06-0.93,0.17-1.4,0.18
			c-1.85,0.03-3.7,0.03-5.55,0.02c-0.66-0.01-1.09,0.16-1.13,0.91c-0.15,2.9-0.31,5.8-0.46,8.73c1.42,0.28,2.53,0.56,3.68-0.34
			c0.41-0.31,1.39-0.25,1.89,0.03c0.43,0.25,0.83,1.12,0.72,1.59c-0.14,0.56-0.77,1.22-1.32,1.38c-0.47,0.13-1.1-0.48-1.69-0.6
			c-0.9-0.18-1.83-0.28-2.74-0.27c-0.17,0-0.51,0.68-0.48,1.02c0.34,4.24,0.74,8.48,1.1,12.72c0.09,1.01,0.64,1.05,1.44,0.88
			c1.53-0.32,3.06-0.64,4.61-0.85c0.4-0.05,0.85,0.32,1.28,0.49c-0.36,0.28-0.68,0.71-1.08,0.8c-1.4,0.3-2.82,0.53-4.24,0.68
			c-1.3,0.14-1.69,0.73-1.4,1.99c0.65,2.84,1.19,5.7,1.85,8.53c0.34,1.46,0.84,2.89,1.41,4.78c1.13-0.88,1.91-1.64,2.83-2.16
			c0.55-0.31,1.44-0.5,1.94-0.25c0.45,0.22,0.84,1.15,0.76,1.69c-0.12,0.8-0.86,0.92-1.72,0.9c-0.95-0.03-1.92,0.35-2.85,0.64
			c-0.16,0.05-0.31,0.61-0.23,0.86c0.41,1.31,0.9,2.6,1.37,3.92c1.25-0.35,2.22-0.73,2.86-1.85c0.23-0.4,1.2-0.66,1.74-0.55
			c0.84,0.18,1.34,1.01,0.96,1.82c-0.23,0.49-0.96,0.78-1.51,1.08c-0.19,0.1-0.51-0.06-0.77-0.06c-2.15,0.02-2.77,0.99-1.84,2.88
			c0.32,0.65,0.67,1.3,1.19,2.31c1-0.77,1.82-1.53,2.76-2.1c0.52-0.32,1.29-0.56,1.82-0.4c0.36,0.1,0.81,1.05,0.68,1.43
			c-0.16,0.46-0.87,0.77-1.39,1.06c-0.19,0.11-0.51-0.04-0.77-0.03c-1.96,0.06-2.78,1.3-1.88,2.99c1.22,2.3,2.52,4.57,3.83,6.83
			c0.64,1.11,1.38,2.17,2.29,3.57c0.97-1.03,1.8-1.86,2.56-2.74c0.62-0.71,1.35-1.15,2.12-0.47c0.44,0.39,0.81,1.18,0.75,1.74
			c-0.09,0.87-0.9,1.06-1.76,1.21c-0.88,0.15-1.74,0.61-2.51,1.09c-0.1,0.06,0.23,1.1,0.55,1.54c5.91,8.26,12.83,15.56,20.95,21.7
			c2.38,1.8,4.88,3.44,7.28,5.13c2-2.02,2.32-2.82,2.31-5.21c-0.01-0.88,0.4-1.49,1.3-1.71c0.93-0.23,1.64,0.21,1.86,1
			c0.16,0.55,0.02,1.66-0.32,1.81c-1.82,0.85-2.16,2.77-3.21,4.15c-0.15,0.2-0.05,0.91,0.14,1.02c2.33,1.39,4.71,2.71,7.38,4.23
			c0.63-1.97,1.11-3.7,1.75-5.36c0.2-0.51,0.82-1.21,1.24-1.2c0.54,0.01,1.3,0.56,1.5,1.06c0.17,0.4-0.19,1.39-0.58,1.6
			c-1.76,0.92-2.03,2.65-2.87,4.36c2.48,1.03,4.78,2,7.19,3c0.72-1.71,1.71-3.09,1.13-4.96c-0.14-0.44,0.39-1.48,0.81-1.61
			c0.55-0.17,1.51,0.12,1.87,0.55c0.29,0.36,0.18,1.6-0.16,1.81c-1.71,1.07-1.5,3.02-2.6,4.67c2.64,0.86,5.05,1.67,7.49,2.39
			c0.22,0.06,0.79-0.37,0.87-0.67c0.38-1.39,1.15-2.71,0.7-4.3c-0.12-0.41,0.51-1.22,1-1.54c0.26-0.18,1.22,0.15,1.39,0.49
			c0.24,0.47,0.27,1.47-0.03,1.72c-1.55,1.25-1.37,3.1-2.09,4.85C211.79,315.31,225.53,316.19,239.7,313.59z M294.3,289.04
			c0.02-0.02-0.17,0.14-0.37,0.31c-3.4,2.84-6.63,5.94-10.26,8.45c-4.63,3.21-9.57,5.99-14.43,8.87c-0.89,0.53-1.03,0.91-0.57,1.81
			c1.11,2.16,2.13,4.38,3.19,6.57c0.12,0.26,0.32,0.48,0.53,0.79c10.83-5.07,20.32-11.88,29.11-20.25
			C298.98,293.29,296.67,291.19,294.3,289.04z M253.24,323.14c-1.01-3.1-1.98-6.09-2.97-9.11c-0.47,0.07-0.81,0.12-1.15,0.18
			c-5.2,0.94-10.4,1.93-15.62,2.81c-2.73,0.46-2.75,0.36-2.62,3.18c0.01,0.3,0.01,0.61,0.04,0.91c0.17,1.97,0.34,3.94,0.52,6.02
			C238.87,326.44,245.98,325.14,253.24,323.14z M250.17,111.83c0.81-2.79,1.65-5.61,2.42-8.45c0.06-0.21-0.36-0.74-0.64-0.82
			c-1.33-0.38-2.68-0.74-4.05-0.94c-5.15-0.77-10.31-1.48-15.46-2.22c-1.09-0.16-1.48,0.33-1.49,1.37c-0.03,2.35-0.11,4.7-0.21,7.04
			c-0.03,0.77,0.23,1.05,1.02,1.11c2.08,0.16,4.17,0.32,6.22,0.67C241.96,110.25,245.92,111.04,250.17,111.83z M175.94,316.87
			c6.41,3,12.92,5.09,19.68,6.97c0.91-3.13,1.79-6.15,2.65-9.1c-6.12-2.15-12.08-4.24-18.22-6.4
			C178.72,311.1,177.35,313.94,175.94,316.87z M194.41,103.02c-6.59,1.74-12.75,3.96-18.8,6.91c1.55,2.94,2.98,5.68,4.26,8.11
			c5.47-1.88,10.68-3.65,15.87-5.47c0.39-0.14,1.01-0.68,0.96-0.89C196.01,108.83,195.22,106,194.41,103.02z M199.23,111.27
			c5.43-0.77,10.66-1.5,15.89-2.28c0.31-0.05,0.8-0.49,0.79-0.74c-0.04-2.9-0.16-5.79-0.26-8.86c-6.39,0.52-12.56,1.4-18.8,3.01
			C197.68,105.52,198.47,108.47,199.23,111.27z M216.01,327.43c0.15-3.42,0.31-6.44,0.38-9.47c0-0.22-0.62-0.61-0.98-0.66
			c-1.63-0.21-3.29-0.25-4.91-0.5c-2.96-0.46-5.89-1.05-8.84-1.52c-0.35-0.06-1.01,0.19-1.09,0.44c-0.9,2.83-1.72,5.69-2.65,8.89
			C204.03,325.55,209.88,326.47,216.01,327.43z M288.65,119.31c-2,2.85-3.8,5.42-5.53,7.9c3.76,3.21,7.37,6.32,11.01,9.38
			c0.19,0.16,0.78,0.12,0.96-0.06c2.11-2.1,4.18-4.24,6.54-6.65C297.22,126.28,293,122.85,288.65,119.31z M270.08,108.88
			c-4.75-2.32-9.63-3.91-14.81-5.31c-0.95,3.06-1.87,6.01-2.8,8.98c4.59,1.63,9.03,3.2,13.59,4.82
			C267.36,114.62,268.69,111.82,270.08,108.88z M270.13,317.11c-1.55-3.16-2.93-5.98-4.33-8.83c-0.61,0.25-1.04,0.45-1.48,0.61
			c-3.57,1.34-7.16,2.66-10.71,4.04c-0.34,0.13-0.82,0.77-0.74,1.02c0.85,2.76,1.81,5.49,2.83,8.52
			C260.53,320.68,265.19,318.95,270.13,317.11z M147.26,128.94c2.33,2.58,4.38,4.86,6.42,7.12c3.53-2.93,6.93-5.74,10.42-8.63
			c-1.75-2.52-3.5-5.04-5.45-7.84C154.82,122.73,151.15,125.75,147.26,128.94z M166.12,126c3.96-2.3,7.74-4.49,11.59-6.73
			c-1.44-2.68-2.9-5.38-4.5-8.36c-4.18,2.45-8.24,4.82-12.44,7.28C162.67,120.96,164.39,123.46,166.12,126z M152.68,289.48
			c-2.92-3.05-5.67-5.93-8.51-8.9c-2.14,1.96-4.25,3.9-6.36,5.82c-0.57,0.52-0.41,0.95,0.05,1.42c2.28,2.39,4.55,4.79,6.83,7.17
			c0.56,0.58,1.17,1.11,1.83,1.73C148.64,294.23,150.65,291.86,152.68,289.48z M326.39,212.59c3,0,5.94,0.03,8.89-0.05
			c0.26-0.01,0.74-0.68,0.72-1.03c-0.12-3.56-0.33-7.11-0.49-10.67c-0.03-0.77-0.41-0.96-1.09-0.89c-1.69,0.15-3.38,0.28-5.07,0.42
			c-1.2,0.09-2.4,0.17-3.67,0.26C325.93,204.67,326.16,208.55,326.39,212.59z M121.01,200.84c-2.96-0.28-5.76-0.58-8.57-0.78
			c-0.28-0.02-0.84,0.47-0.86,0.75c-0.25,3.63-0.44,7.27-0.58,10.91c-0.01,0.28,0.42,0.81,0.66,0.82c2.85,0.06,5.71,0.04,8.57,0.04
			C120.5,208.61,120.75,204.81,121.01,200.84z M332.9,185.25c-3.02,0.78-5.69,1.48-8.38,2.14c-0.95,0.24-1.26,0.68-0.94,1.67
			c0.29,0.9,0.41,1.86,0.59,2.8c0.4,2.11,0.79,4.23,1.21,6.47c3.24-0.29,6.37-0.56,9.8-0.87
			C334.4,193.28,333.67,189.35,332.9,185.25z M296.43,286.88c2.22,2.39,4.43,4.75,6.83,7.33c2.7-2.98,5.28-5.82,7.99-8.81
			c-2.7-2.27-5.17-4.34-7.6-6.38C301.16,281.72,298.84,284.25,296.43,286.88z M114.21,185.48c-0.28,1.18-0.56,2.18-0.75,3.19
			c-0.48,2.6-0.95,5.21-1.34,7.82c-0.05,0.34,0.38,1.05,0.65,1.09c2.58,0.36,5.17,0.64,7.77,0.86c0.32,0.03,0.92-0.38,0.97-0.67
			c0.64-3.22,1.2-6.46,1.81-9.84C120.36,187.13,117.41,186.34,114.21,185.48z M160.96,296.59c-1.81,2.34-3.6,4.62-5.34,6.94
			c-0.16,0.21-0.05,0.89,0.16,1.05c2.86,2.17,5.77,4.28,8.79,6.5c1.77-3,3.41-5.77,5.07-8.57
			C166.72,300.51,163.9,298.59,160.96,296.59z M320.63,178.36c2.88-1.06,5.69-2.08,8.48-3.15c0.24-0.09,0.54-0.64,0.46-0.85
			c-1.24-3.32-2.54-6.61-3.9-10.11c-3.11,1.56-5.96,2.98-8.81,4.41C318.14,171.96,319.35,175.07,320.63,178.36z M335.39,226.15
			c-3.16-0.3-6.01-0.57-8.86-0.85c-0.71-0.07-1.02,0.24-1.11,0.94c-0.22,1.77-0.48,3.53-0.74,5.29c-0.18,1.23-0.37,2.46-0.57,3.75
			c3.2,0.7,6.24,1.36,9.51,2.07C334.22,233.61,334.79,229.98,335.39,226.15z M323.61,237.55c-0.83,3.1-1.62,6.02-2.36,8.95
			c-0.05,0.19,0.19,0.6,0.39,0.68c2.82,1.09,5.65,2.14,8.68,3.28c0.98-3.64,1.91-7.12,2.88-10.74
			C329.83,238.95,326.77,238.26,323.61,237.55z M145.08,145.28c2.36-2.53,4.61-4.96,6.95-7.48c-2.21-2.32-4.3-4.51-6.56-6.89
			c-2.58,2.72-5.04,5.31-7.85,8.28c0.73,0.51,1.3,0.85,1.8,1.26C141.28,142.01,143.12,143.6,145.08,145.28z M126.38,178.01
			c1.26-3.12,2.44-6.04,3.67-9.07c-2.66-1.33-5.28-2.67-7.93-3.94c-0.21-0.1-0.8,0.14-0.9,0.36c-1.3,3-2.54,6.02-3.87,9.21
			C120.54,175.78,123.39,176.87,126.38,178.01z M319.7,152.69c-2.58,1.79-4.9,3.39-7.19,5.04c-0.32,0.23-0.7,0.88-0.58,1.11
			c1.22,2.57,2.54,5.09,3.84,7.66c3.01-1.53,5.87-2.98,8.92-4.52C323.01,158.85,321.4,155.84,319.7,152.69z M127.56,152.98
			c-1.57,2.94-3.02,5.69-4.51,8.41c-0.42,0.76-0.18,1.2,0.51,1.55c2.5,1.28,4.99,2.56,7.54,3.87c1.47-2.77,2.92-5.51,4.44-8.39
			C132.92,156.64,130.39,154.91,127.56,152.98z M326.34,214.93c-0.13,2.53-0.23,4.78-0.38,7.03c-0.06,0.83,0.34,1.03,1.06,1.09
			c2.42,0.21,4.84,0.44,7.25,0.7c0.78,0.08,1.26-0.08,1.31-0.96c0.12-2.34,0.29-4.67,0.37-7.01c0.01-0.27-0.44-0.8-0.68-0.81
			C332.34,214.91,329.39,214.93,326.34,214.93z M278.83,113.16c-1.54,2.84-2.89,5.27-4.16,7.73c-0.15,0.28,0,0.99,0.24,1.15
			c1.93,1.31,3.92,2.54,6.04,3.89c1.67-2.42,3.31-4.76,4.89-7.14c0.15-0.22,0.02-0.9-0.2-1.05
			C283.49,116.23,281.29,114.79,278.83,113.16z M315.35,146.16c-1.77-2.31-3.46-4.52-5.27-6.88c-2.6,2.26-4.96,4.32-7.36,6.41
			c1.73,2.24,3.28,4.24,4.87,6.29C310.2,150.02,312.65,148.18,315.35,146.16z M111.23,215.04c0,2.95,0,5.78,0,8.77
			c3.26-0.31,6.25-0.6,9.15-0.88c0-2.71,0-5.26,0-7.9C117.18,215.04,114.17,215.04,111.23,215.04z M129.57,257.4
			c-2.61,1.36-5.15,2.67-7.66,4.03c-0.22,0.12-0.44,0.64-0.35,0.83c1.1,2.34,2.25,4.64,3.42,7.03c2.59-1.56,4.96-3.02,7.36-4.42
			c0.63-0.37,0.71-0.74,0.37-1.37C131.67,261.55,130.68,259.57,129.57,257.4z M123.45,239.84c-0.44-2.23-0.95-4.41-1.28-6.62
			c-0.15-0.96-0.6-1.02-1.32-0.86c-2.41,0.54-4.82,1.08-7.21,1.67c-0.29,0.07-0.74,0.51-0.71,0.7c0.46,2.57,1,5.13,1.54,7.78
			C117.63,241.57,120.48,240.72,123.45,239.84z M177.98,307.08c-2.12-1.14-4.1-2.2-6.22-3.33c-1.66,2.78-3.26,5.47-4.98,8.35
			c2.39,1.33,4.6,2.56,6.93,3.86C175.16,312.94,176.53,310.1,177.98,307.08z M326.6,259.89c0.69-1.7,1.35-3.24,1.95-4.81
			c0.88-2.33,0.86-2.34-1.5-3.27c-0.89-0.35-1.76-0.74-2.65-1.07c-1.32-0.49-2.66-0.96-4.11-1.47c-0.82,2.22-1.57,4.27-2.35,6.39
			C320.85,257.08,323.61,258.43,326.6,259.89z M296.48,138.74c1.58,1.75,3.05,3.38,4.58,5.08c2.5-2.14,4.89-4.19,7.47-6.41
			c-1.77-1.9-3.47-3.71-4.84-5.19C301.21,134.47,298.88,136.57,296.48,138.74z M317.67,276.44c1.15-1.89,2.23-3.6,3.22-5.38
			c0.17-0.3,0.04-1.09-0.22-1.26c-2.3-1.48-4.65-2.89-7.02-4.26c-0.22-0.13-0.85,0.07-1,0.31c-0.87,1.35-1.68,2.74-2.42,4.17
			c-0.15,0.28-0.01,0.96,0.23,1.14C312.78,272.92,315.15,274.61,317.67,276.44z M126.28,271.42c1.28,2.07,2.47,3.99,3.69,5.95
			c2.46-1.75,4.77-3.37,7.05-5.04c0.25-0.18,0.48-0.79,0.36-1c-0.93-1.65-1.95-3.26-3.01-4.97
			C131.64,268.07,129.04,269.69,126.28,271.42z M139.73,152.18c1.12-1.47,2.09-2.8,3.12-4.09c0.44-0.55,0.5-0.98-0.05-1.45
			c-2.17-1.86-4.33-3.72-6.66-5.71c-1.42,1.91-2.75,3.7-4.17,5.61C134.67,148.5,137.19,150.33,139.73,152.18z M139.21,273.86
			c-1.69,1.22-3.31,2.37-4.92,3.54c-0.74,0.54-1.5,1.05-2.16,1.68c-0.22,0.21-0.36,0.85-0.21,1.07c1.11,1.63,2.31,3.21,3.55,4.9
			c2.35-2.08,4.5-3.97,6.6-5.9c0.23-0.21,0.4-0.85,0.26-1.05C141.36,276.67,140.3,275.31,139.21,273.86z M322.58,268.05
			c0.9-1.8,1.8-3.47,2.57-5.2c0.12-0.28-0.19-1.02-0.49-1.18c-2.34-1.23-4.71-2.38-7.1-3.5c-0.25-0.12-0.88,0.02-0.99,0.22
			c-0.82,1.51-1.55,3.07-2.32,4.65C317.04,264.72,319.74,266.34,322.58,268.05z M153.07,302.66c2.06-2.66,3.96-5.12,5.92-7.64
			c-1.5-1.31-2.92-2.54-4.45-3.88c-1.96,2.31-3.81,4.44-5.58,6.63c-0.2,0.24-0.18,0.97,0.03,1.18
			C150.27,300.21,151.64,301.39,153.07,302.66z M116.63,176.96c-0.58,2.01-1.13,3.82-1.6,5.65c-0.05,0.18,0.29,0.63,0.52,0.7
			c2.78,0.8,5.57,1.56,8.43,2.35c0.52-1.58,1.05-3.09,1.48-4.62c0.08-0.28-0.21-0.89-0.47-0.99
			C122.29,179,119.56,178.03,116.63,176.96z M116.98,251.14c2.87-1.16,5.49-2.2,8.07-3.31c0.24-0.1,0.45-0.69,0.38-0.99
			c-0.3-1.26-0.71-2.5-1.07-3.75c-0.18-0.64-0.48-0.95-1.22-0.71c-2.35,0.76-4.73,1.44-7.08,2.23c-0.29,0.1-0.68,0.7-0.61,0.98
			C115.88,247.39,116.42,249.17,116.98,251.14z M126.57,249.75c-2.72,1.21-5.25,2.32-7.77,3.46c-0.26,0.12-0.66,0.54-0.61,0.68
			c0.67,1.84,1.42,3.66,2.15,5.5c2.92-1.46,5.58-2.8,8.35-4.18C127.99,253.41,127.31,251.66,126.57,249.75z M305.23,277.05
			c2.55,2.16,4.98,4.22,7.56,6.41c1.12-1.62,2.15-3.05,3.11-4.52c0.12-0.18,0.01-0.73-0.18-0.87c-2.42-1.78-4.88-3.51-7.36-5.28
			C307.29,274.24,306.32,275.56,305.23,277.05z M322.79,185.37c2.93-0.77,5.68-1.52,8.45-2.19c0.79-0.19,1-0.56,0.79-1.27
			c-0.38-1.29-0.73-2.58-1.2-3.84c-0.1-0.27-0.75-0.6-1.01-0.51c-2.61,0.92-5.2,1.9-7.78,2.93c-0.25,0.1-0.52,0.69-0.45,0.97
			C321.93,182.75,322.37,184.01,322.79,185.37z M112.4,231.78c3.16-0.68,6.11-1.32,9.13-1.98c-0.23-1.6-0.43-3.03-0.66-4.6
			c-2.9,0.32-5.66,0.59-8.4,0.96c-0.27,0.04-0.68,0.65-0.66,0.96C111.93,228.63,112.18,230.12,112.4,231.78z M272.38,109.84
			c-1.18,2.45-2.27,4.66-3.33,6.89c-0.82,1.74-0.8,1.75,0.86,2.64c0.34,0.18,0.68,0.39,0.99,0.62c0.66,0.48,1.1,0.43,1.52-0.37
			c1.17-2.23,2.44-4.4,3.59-6.64c0.16-0.3-0.01-1.06-0.27-1.24C274.76,111.07,273.67,110.55,272.38,109.84z M224.83,317.58
			c-0.04,0.55-0.11,1.02-0.11,1.48c0.01,1.87,0.02,3.73,0.06,5.6c0.08,3.2-0.41,2.9,3.15,2.71c0.04,0,0.1,0.01,0.13-0.01
			c0.24-0.24,0.67-0.5,0.67-0.74c-0.08-3.02-0.23-6.04-0.37-9.04C227.08,317.58,226.01,317.58,224.83,317.58z M218.82,317.65
			c-0.06,0.92-0.14,1.78-0.17,2.64c-0.05,1.48-0.01,2.96-0.12,4.43c-0.21,2.79-0.22,2.74,2.5,2.81c1.09,0.03,1.35-0.42,1.34-1.37
			c-0.02-1.87-0.01-3.73,0.01-5.6C222.4,317.23,222.41,317.23,218.82,317.65z M222.16,99.13c-1,0-1.83,0.05-2.65-0.01
			c-1.14-0.08-1.43,0.49-1.38,1.5c0.1,1.91,0.17,3.82,0.22,5.74c0.07,2.68,0.22,2.84,2.92,2.43c0.33-0.05,0.85-0.53,0.85-0.82
			C222.19,105.06,222.16,102.15,222.16,99.13z M228.13,108.86c0.09-0.77,0.2-1.41,0.22-2.05c0.06-1.69,0.05-3.38,0.12-5.07
			c0.1-2.74-0.25-3.07-3.02-2.58c-0.28,0.05-0.71,0.43-0.72,0.66c-0.05,2.9-0.03,5.79-0.03,8.82
			C225.89,108.72,226.95,108.79,228.13,108.86z M130.52,148.74c-0.34,0.52-0.74,0.92-0.87,1.39c-0.1,0.38-0.04,1.05,0.21,1.24
			c2.28,1.7,4.62,3.32,7.04,5.03c0.51-0.76,0.95-1.41,1.43-2.13C135.67,152.38,133.13,150.59,130.52,148.74z M310.43,156.09
			c2.22-1.55,4.33-3.13,6.56-4.54c1.13-0.71,1.08-1.35,0.39-2.24c-0.21-0.27-0.38-0.56-0.58-0.86c-2.25,1.63-4.3,3.06-6.3,4.57
			C308.9,154.23,308.92,154.45,310.43,156.09z"/>
		<path class="st2" d="M303.26,213.55c0.03,43.92-35.34,79.49-78.88,79.91c-43.25,0.42-80.65-34.45-80.86-79.07
			c-0.21-44.14,33.65-80.94,79.14-81.47C267.38,132.41,302.77,167.89,303.26,213.55z M161.27,178.7c-0.05-0.03-0.1-0.05-0.15-0.08
			c-0.2,0.22-0.43,0.42-0.61,0.65c-6,7.58-9.6,16.18-10.82,25.76c-1.35,10.63,0.27,20.88,4.71,30.56
			c6.62,14.43,17.19,25.21,31.4,32.29c14.08,7.02,29,9.19,44.54,7.04c8.16-1.13,15.93-3.65,23.24-7.46
			c8.67-4.52,16.16-10.52,22.44-18.03c9.52-11.4,14.44-24.33,12.74-39.3c-1.04-9.14-4.75-17.16-11.56-23.51
			c-7.08-6.61-15.45-9.55-25.15-8.11c-3.09,0.46-6.14,1.21-9.23,1.68c-3.54,0.54-6.7-1.33-8.07-4.63c-0.43-1.04-0.77-2.12-1.09-3.2
			c-1.9-6.33-5.09-11.94-10.39-15.92c-10.94-8.22-22.86-9.2-35-3.12c-10.71,5.37-17.14,14.27-18.86,26.24
			c-1.26,8.73,0.74,16.78,6.37,23.62c6.61,8.03,15.18,11.31,25.55,9.51c3.79-0.66,6.14,0.46,8.02,3.82
			c0.23,0.42,0.46,0.84,0.71,1.25c1.36,2.23,3.31,2.73,5.37,1.13c1.19-0.93,1.93-0.92,3.05,0.08c1.73,1.53,3.41,1.21,4.78-0.65
			c0.27-0.37,0.58-0.72,0.86-1.06c0.62,0.31,1.11,0.61,1.63,0.79c1.14,0.41,2.06,0.04,2.35-1.12c0.21-0.85,0.64-0.96,1.37-0.99
			c3.02-0.12,5.08-1.64,6.01-4.52c0.3-0.94,0.45-1.95,0.52-2.94c0.13-1.78,0.94-2.44,2.63-1.92c0.73,0.23,1.56,0.55,2.04,1.09
			c1.55,1.74,3.05,3.55,4.4,5.45c1.35,1.92,2.18,2.39,4.79,1.95c-0.48-1.19-0.94-2.35-1.42-3.5c-1.29-3.13-2.81-6.19-3.82-9.41
			c-1.37-4.36,1.32-8.98,5.67-10.07c-0.37,0.41-0.65,0.72-0.93,1.02c-2.8,3.11-3.85,6.55-2.03,10.55c0.34,0.75,0.63,1.53,0.97,2.28
			c2.28,5.08,4.57,10.15,6.85,15.22c1.38,3.07,1.03,5.16-1.28,7.63c-2.11,2.25-4.28,2.73-7.33,1.58c-0.65-0.24-1.29-0.53-1.93-0.8
			c-3.05-1.27-6.07-2.61-9.16-3.79c-2.82-1.08-5.47-0.73-7.75,1.41c-2,1.87-4.02,3.73-6.03,5.59c-1.36,1.26-2.71,2.51-4.29,3.97
			c-1.22-2.43-2.31-4.64-3.46-6.82c-0.31-0.59-0.7-1.34-1.24-1.58c-1.37-0.59-2.37,1.4-3.89,0.77c-0.18-0.08-0.75,0.44-0.93,0.79
			c-0.29,0.56-0.4,1.21-0.59,1.82c-2.6,0.38-3.26,1.67-1.82,3.86c2.15,3.27,4.36,6.5,6.67,9.66c1.93,2.64,5.07,3.41,8.01,1.91
			c1.45-0.74,2.73-1.85,4.01-2.88c1.56-1.25,3-2.65,4.56-3.9c1.62-1.3,3.41-1.41,5.24-0.41c0.76,0.42,1.49,0.89,2.22,1.37
			c2.73,1.79,5.42,3.63,8.18,5.37c3.25,2.05,7.11,1.89,9.53-0.59c3.91-4.02,7.73-8.13,11.48-12.31c2.92-3.26,3.35-6.97,1.72-11.05
			c-1.85-4.64-3.58-9.33-5.26-14.04c-0.46-1.3-0.57-2.73-0.84-4.1c0.14-0.04,0.28-0.09,0.42-0.13c0.83,1.5,1.82,2.94,2.46,4.52
			c1.92,4.66,3.74,9.36,5.53,14.08c1.71,4.52,0.63,8.59-2.42,12.14c-2.86,3.33-5.87,6.54-8.87,9.74c-1.28,1.36-2.56,2.81-4.13,3.76
			c-3.92,2.39-7.83,1.7-11.54-0.7c-2.74-1.77-5.46-3.57-8.17-5.38c-2.38-1.59-3.56-1.51-5.65,0.41c-1.63,1.5-3.29,2.97-4.92,4.48
			c-6.39,5.93-14.09,8.49-22.66,8.49c-7.51,0.01-14.54-1.96-20.94-5.95c-15.07-9.39-23.27-23.09-24.95-40.65
			c-0.81-8.45,0.86-16.63,3.74-24.58C159.64,182.78,160.48,180.75,161.27,178.7z M241.3,215.64c-3.09-0.02-4.78,1.44-5.13,3.9
			c-0.35,2.49,0.73,4.09,3.26,4.83c0.58,0.17,1.19,0.28,1.76,0.46c2.71,0.89,5.53,1.56,8.09,2.78c1.35,0.65,2.1,0.53,3.06-0.32
			c1.34-1.19,1.83-2.61,1.19-4.33c-0.35-0.93-0.84-1.82-1.13-2.77c-0.68-2.25-1.94-3.43-4.48-3.52
			C245.52,216.6,243.14,215.95,241.3,215.64z"/>
	</g>
	<g>
		<path class="st3" d="M93.35,386.21l2.49-2.1c0.77,1.79,1.62,3.07,2.56,3.85c0.93,0.78,2.07,1.17,3.4,1.17
			c1.71,0,3.08-0.5,4.11-1.49c1.03-0.99,1.54-2.31,1.54-3.95c0-1.03-0.25-1.88-0.74-2.57c-0.5-0.68-1.72-1.56-3.67-2.62
			c-2.52-1.38-4.21-2.62-5.07-3.73c-0.86-1.11-1.29-2.46-1.29-4.04c0-2.42,0.78-4.4,2.33-5.94c1.56-1.54,3.57-2.31,6.04-2.31
			c1.63,0,3.06,0.36,4.29,1.07c1.23,0.71,2.31,1.82,3.25,3.31l-2.45,2.1c-0.62-1.2-1.34-2.08-2.16-2.66
			c-0.82-0.58-1.77-0.87-2.85-0.87c-1.49,0-2.7,0.45-3.63,1.34c-0.93,0.89-1.39,2.04-1.39,3.44c0,1.88,1.43,3.58,4.3,5.11
			c0.5,0.27,0.89,0.48,1.16,0.62c2.02,1.14,3.4,2.28,4.16,3.41c0.75,1.13,1.13,2.55,1.13,4.26c0,2.61-0.8,4.68-2.41,6.22
			c-1.61,1.54-3.79,2.3-6.56,2.3c-2.02,0-3.75-0.5-5.19-1.5C95.24,389.63,94.13,388.16,93.35,386.21z"/>
		<path class="st3" d="M120.04,391.38l1.62-12.32l-7.58-15.91h3.63l5.84,12.79l8.1-12.79h3.84l-10.43,15.95l-1.62,12.29H120.04z"/>
		<path class="st3" d="M135.57,391.38l3.78-29.35l16.84,22.08l2.8-20.96h3.36l-3.86,29.34l-16.76-21.87l-2.8,20.77H135.57z"/>
		<path class="st3" d="M169.8,391.38l3.28-25.17h-7.1l0.39-3.07h17.78l-0.41,3.07h-7.17l-3.34,25.17H169.8z"/>
		<path class="st3" d="M184.71,391.38l3.7-28.24h3.39l-1.45,11.17h14.45l1.47-11.17h3.43l-3.7,28.24h-3.43l1.81-13.98h-14.43
			l-1.85,13.98H184.71z"/>
		<path class="st0" d="M235.28,377.09c-0.04,0.93-0.25,2.26-0.64,3.99c-0.06,0.28-0.12,0.51-0.15,0.68l-2.12,9.62h-8.85l-8.25-28.24
			h10.18l2.22,12.44c0.19,1.09,0.34,2.09,0.44,3c0.1,0.91,0.17,1.76,0.19,2.56h0.23c0.03-1.12,0.22-2.59,0.6-4.42
			c0.03-0.17,0.05-0.3,0.08-0.41l2.68-13.17h7.16l2.68,13.19c0.01,0.08,0.04,0.21,0.08,0.39c0.37,1.84,0.57,3.31,0.6,4.42h0.23
			c0.03-0.8,0.09-1.65,0.19-2.56c0.1-0.91,0.25-1.91,0.44-3l2.22-12.44h10.18l-8.25,28.24h-8.85l-2.12-9.62
			c-0.04-0.17-0.09-0.4-0.15-0.69c-0.39-1.72-0.6-3.05-0.64-3.97H235.28z"/>
		<path class="st0" d="M286.6,377.32c0,2.07-0.37,4-1.1,5.78c-0.73,1.78-1.81,3.37-3.22,4.77c-1.41,1.38-3.04,2.43-4.89,3.16
			c-1.85,0.73-3.81,1.1-5.89,1.1c-2.11,0-4.08-0.37-5.92-1.1c-1.84-0.73-3.47-1.8-4.9-3.2c-1.4-1.36-2.46-2.93-3.18-4.71
			c-0.72-1.77-1.08-3.71-1.08-5.81c0-2.1,0.36-4.04,1.08-5.82c0.72-1.79,1.78-3.36,3.18-4.73c1.41-1.39,3.04-2.45,4.88-3.17
			c1.84-0.73,3.82-1.09,5.94-1.09s4.1,0.36,5.94,1.09c1.84,0.73,3.47,1.78,4.9,3.17c1.39,1.38,2.45,2.96,3.17,4.74
			C286.24,373.3,286.6,375.24,286.6,377.32z M271.5,382.65c1.43,0,2.57-0.49,3.44-1.46c0.87-0.97,1.3-2.26,1.3-3.87
			c0-1.62-0.43-2.92-1.3-3.91c-0.87-0.98-2.02-1.48-3.44-1.48s-2.58,0.5-3.45,1.49c-0.87,0.99-1.31,2.29-1.31,3.9
			s0.44,2.9,1.31,3.87C268.92,382.16,270.08,382.65,271.5,382.65z"/>
		<path class="st0" d="M316.67,391.38l-1.23-11.19c-0.08-0.86-0.15-1.72-0.23-2.57c-0.08-0.85-0.14-1.71-0.19-2.57
			c-0.12,0.81-0.28,1.67-0.49,2.57c-0.21,0.91-0.47,1.87-0.78,2.9l-3.24,10.86h-6.04l-3.24-10.86c-0.32-1.03-0.59-2-0.79-2.9
			c-0.21-0.91-0.37-1.76-0.48-2.57c-0.06,0.87-0.13,1.74-0.2,2.58c-0.07,0.85-0.14,1.7-0.22,2.57l-1.23,11.19h-9.95l4.82-28.24
			h10.47l2.01,6.98c0.06,0.22,0.16,0.55,0.29,0.98c0.85,2.94,1.37,5.37,1.56,7.27h0.17c0.15-1.2,0.39-2.47,0.69-3.82
			c0.31-1.35,0.72-2.87,1.23-4.55l2.1-6.87h10.45l4.47,28.24H316.67z"/>
		<path class="st0" d="M329.42,391.38v-28.24h13.52c2.89,0,5.15,0.68,6.77,2.03c1.62,1.36,2.43,3.24,2.43,5.66
			c0,1.54-0.38,2.83-1.15,3.85c-0.77,1.02-1.85,1.69-3.25,2c1.92,0.4,3.34,1.15,4.28,2.26c0.94,1.11,1.41,2.59,1.41,4.46
			c0,2.64-0.89,4.63-2.67,5.97c-1.78,1.34-4.4,2.02-7.86,2.02H329.42z M338.95,369.86v3.95h1.33c0.82,0,1.45-0.17,1.88-0.51
			c0.43-0.34,0.65-0.83,0.65-1.48s-0.22-1.13-0.65-1.47c-0.43-0.33-1.06-0.5-1.88-0.5H338.95z M338.95,379.89v4.51h1.7
			c1.02,0,1.8-0.2,2.34-0.59c0.55-0.39,0.82-0.95,0.82-1.67c0-0.73-0.27-1.29-0.82-1.68c-0.55-0.39-1.33-0.58-2.34-0.58H338.95z"/>
	</g>
</g>
</svg>
